<svg width="84" height="84" viewBox="0 0 84 84" fill="none" xmlns="http://www.w3.org/2000/svg">
<circle cx="42" cy="42" r="42" fill="#00BF68"/>
<path d="M18 66L21.374 53.674C19.292 50.066 18.198 45.976 18.2 41.782C18.206 28.67 28.876 18 41.986 18C48.348 18.002 54.32 20.48 58.812 24.976C63.302 29.472 65.774 35.448 65.772 41.804C65.766 54.918 55.096 65.588 41.986 65.588C38.006 65.586 34.084 64.588 30.61 62.692L18 66ZM31.194 58.386C34.546 60.376 37.746 61.568 41.978 61.57C52.874 61.57 61.75 52.702 61.756 41.8C61.76 30.876 52.926 22.02 41.994 22.016C31.09 22.016 22.22 30.884 22.216 41.784C22.214 46.234 23.518 49.566 25.708 53.052L23.71 60.348L31.194 58.386ZM53.968 47.458C53.82 47.21 53.424 47.062 52.828 46.764C52.234 46.466 49.312 45.028 48.766 44.83C48.222 44.632 47.826 44.532 47.428 45.128C47.032 45.722 45.892 47.062 45.546 47.458C45.2 47.854 44.852 47.904 44.258 47.606C43.664 47.308 41.748 46.682 39.478 44.656C37.712 43.08 36.518 41.134 36.172 40.538C35.826 39.944 36.136 39.622 36.432 39.326C36.7 39.06 37.026 38.632 37.324 38.284C37.626 37.94 37.724 37.692 37.924 37.294C38.122 36.898 38.024 36.55 37.874 36.252C37.724 35.956 36.536 33.03 36.042 31.84C35.558 30.682 35.068 30.838 34.704 30.82L33.564 30.8C33.168 30.8 32.524 30.948 31.98 31.544C31.436 32.14 29.9 33.576 29.9 36.502C29.9 39.428 32.03 42.254 32.326 42.65C32.624 43.046 36.516 49.05 42.478 51.624C43.896 52.236 45.004 52.602 45.866 52.876C47.29 53.328 48.586 53.264 49.61 53.112C50.752 52.942 53.126 51.674 53.622 50.286C54.118 48.896 54.118 47.706 53.968 47.458Z" fill="white"/>
</svg>
