<svg xmlns="http://www.w3.org/2000/svg" width="750" height="500" fill="none"><path fill="#F5F5F5" d="M366.595 163.49c-.796 0-1.598-.13-2.37-.398l-12.244-4.243a7.29 7.29 0 0 1-4.755-5.492l-2.448-12.725a7.29 7.29 0 0 1 2.378-6.864l9.797-8.483a7.28 7.28 0 0 1 7.133-1.372l12.244 4.243a7.28 7.28 0 0 1 4.755 5.492l2.448 12.725a7.29 7.29 0 0 1-2.378 6.863l-9.798 8.483a7.28 7.28 0 0 1-4.762 1.771m-11.593-12.06 11.44 3.964 9.154-7.926-2.287-11.89-11.441-3.965-9.154 7.926zM509.438 126.536a7.2 7.2 0 0 1-2.369-.398l-6.198-2.147a7.29 7.29 0 0 1-4.755-5.493l-1.238-6.439a7.28 7.28 0 0 1 2.377-6.863l4.961-4.295a7.28 7.28 0 0 1 7.133-1.37l6.196 2.147a7.28 7.28 0 0 1 4.756 5.493l1.238 6.439a7.29 7.29 0 0 1-2.376 6.863l-4.961 4.295a7.3 7.3 0 0 1-4.764 1.768m-5.546-9.965 5.395 1.869 4.316-3.737-1.079-5.606-5.395-1.87-4.316 3.737z"/><path fill="#E0E0E0" d="M680.68 220.769a5.28 5.28 0 0 1-4.112-1.97l-3.491-4.356a5.28 5.28 0 0 1-.799-5.203l2.027-5.202a5.28 5.28 0 0 1 4.105-3.293l5.52-.846a5.28 5.28 0 0 1 4.904 1.91l3.491 4.356a5.28 5.28 0 0 1 .799 5.203l-2.027 5.202a5.28 5.28 0 0 1-4.106 3.292l-5.519.846a5 5 0 0 1-.792.061m4.046-16.93q-.096 0-.19.015l-5.52.846a1.26 1.26 0 0 0-.984.79l-2.027 5.202c-.163.419-.09.898.192 1.249l3.491 4.356c.281.351.742.527 1.177.458l5.519-.846c.444-.068.821-.371.984-.79l2.027-5.202c.163-.419.09-.898-.192-1.248v-.001l-3.491-4.355a1.26 1.26 0 0 0-.986-.474M57.698 264.231a6.79 6.79 0 0 1-5.285-2.534l-8.205-10.233a6.79 6.79 0 0 1-1.025-6.686l4.761-12.224a6.78 6.78 0 0 1 5.277-4.23l12.966-1.989a6.78 6.78 0 0 1 6.303 2.456l8.205 10.234a6.78 6.78 0 0 1 1.026 6.685l-4.762 12.225a6.78 6.78 0 0 1-5.278 4.232l-12.966 1.988q-.508.076-1.017.076m-7.942-17.04 8.035 10.022 12.697-1.946 4.662-11.97-8.035-10.023-12.696 1.947z"/><path fill="#EBEBEB" d="M90.882 174.596H83.15a5.28 5.28 0 0 1-4.559-2.632l-3.866-6.697a5.28 5.28 0 0 1 0-5.264l3.866-6.697a5.28 5.28 0 0 1 4.559-2.632h7.732a5.28 5.28 0 0 1 4.559 2.631l3.867 6.697a5.28 5.28 0 0 1 0 5.264l-3.867 6.697a5.28 5.28 0 0 1-4.559 2.633m-7.733-19.92c-.45 0-.87.242-1.095.632l-3.866 6.697c-.225.39-.225.874 0 1.264l3.866 6.697c.225.39.645.632 1.095.632h7.732c.45 0 .87-.242 1.095-.632l3.866-6.697c.225-.39.225-.874 0-1.264l-3.866-6.697a1.27 1.27 0 0 0-1.095-.632zM222.779 98.952l-15.076-9.488-18.513-31.24-25.75-15.768-4.985 5.398 2.619 3.515 8.124 10.903 32.275 43.32 13.161 7.241zM203.834 121.413l-4.319-14.387-47.424-54.177-6.323 3.741 10.012 28.486 27.53 27.04 6.17 16.888z"/><path fill="#E0E0E0" d="M229.517 101.632s53.554 29.39 64.342 39.312 35.995 51.229 33.435 56.505-4.518 5.955-10.329.88c-5.81-5.075-24.583-33.421-29.631-38.001s-67.775-41.381-67.775-41.381z"/><path fill="#EBEBEB" d="M193.215 114.22c9.366 0 16.959-7.593 16.959-16.959s-7.593-16.959-16.959-16.959-16.959 7.593-16.959 16.959 7.593 16.959 16.959 16.959"/><path fill="#E0E0E0" d="M188.948 113.675c.014-.089 1.458.405 4.142.427 1.338.032 2.983-.18 4.802-.708a16.8 16.8 0 0 0 5.673-2.955c1.853-1.483 3.625-3.497 4.789-6.049 1.142-2.538 1.834-5.556 1.489-8.69-.126-1.565-.52-3.145-1.142-4.664-.281-.775-.697-1.496-1.084-2.239-.461-.7-.902-1.424-1.464-2.071-2.129-2.677-5.24-4.682-8.737-5.626-3.515-.88-7.209-.644-10.373.657-.806.291-1.545.709-2.288 1.096-.7.46-1.414.888-2.037 1.428-1.283 1.024-2.397 2.212-3.27 3.518-1.828 2.569-2.692 5.543-2.93 8.317-.226 2.796.34 5.418 1.237 7.615a16.8 16.8 0 0 0 3.517 5.344c1.333 1.347 2.664 2.333 3.849 2.957 2.356 1.287 3.858 1.558 3.827 1.643q-.004.013-.269-.057l-.78-.218a8 8 0 0 1-1.241-.434c-.482-.197-1.046-.412-1.632-.757-1.213-.604-2.585-1.579-3.961-2.93a16.9 16.9 0 0 1-3.649-5.406c-.939-2.236-1.54-4.918-1.328-7.788.224-2.846 1.096-5.906 2.964-8.559.893-1.347 2.036-2.575 3.354-3.633.64-.557 1.374-1.001 2.095-1.476.765-.401 1.524-.833 2.353-1.135 3.258-1.347 7.072-1.596 10.695-.688 3.605.971 6.812 3.046 9.001 5.808.577.667 1.032 1.414 1.504 2.137.398.766.822 1.51 1.11 2.309.635 1.566 1.036 3.194 1.16 4.805.34 3.227-.388 6.323-1.578 8.918-1.212 2.61-3.042 4.66-4.951 6.155a16.95 16.95 0 0 1-5.82 2.945c-1.859.51-3.531.694-4.885.631-.679.016-1.276-.071-1.794-.134a8 8 0 0 1-1.298-.225l-.786-.189q-.266-.066-.264-.079"/><path fill="#E0E0E0" d="M190.806 106.529a9.577 9.577 0 1 1 4.82-18.537 9.577 9.577 0 0 1-4.82 18.537"/><path fill="#E0E0E0" d="M190.805 106.529c.012-.065.831.199 2.339.197a9.55 9.55 0 0 0 5.866-2.088c1.034-.834 2.021-1.964 2.668-3.393.635-1.421 1.019-3.108.823-4.857a8.8 8.8 0 0 0-.642-2.603 8.8 8.8 0 0 0-1.424-2.404c-1.189-1.493-2.925-2.61-4.876-3.137-1.961-.491-4.021-.36-5.788.365a8.7 8.7 0 0 0-2.415 1.406 8.8 8.8 0 0 0-1.828 1.961c-1.023 1.433-1.51 3.093-1.647 4.643-.13 1.563.181 3.03.679 4.262a9.55 9.55 0 0 0 4.107 4.679c1.317.738 2.16.906 2.138.969 0 0-.86-.093-2.236-.789-1.347-.685-3.237-2.143-4.349-4.715-.539-1.271-.887-2.798-.77-4.435.124-1.623.618-3.369 1.682-4.885a9.2 9.2 0 0 1 1.911-2.076 9.2 9.2 0 0 1 2.539-1.493c1.86-.77 4.039-.914 6.108-.395 2.059.554 3.892 1.741 5.14 3.319a9.2 9.2 0 0 1 1.49 2.54c.362.895.589 1.824.658 2.744.191 1.842-.227 3.608-.909 5.085-.695 1.486-1.742 2.651-2.832 3.499-2.223 1.705-4.584 2.058-6.095 2-1.54-.062-2.337-.399-2.337-.399"/><path fill="#EBEBEB" d="m212.143 110.447 6.928-12.056a7.383 7.383 0 0 1 10.079-2.723l.648.373a7.383 7.383 0 0 1 2.723 10.079l-6.927 12.056a7.383 7.383 0 0 1-10.079 2.723l-.648-.373a7.383 7.383 0 0 1-2.724-10.079"/><path fill="#E0E0E0" d="M212.143 110.446c.075.026-.598.925-.83 2.816a7.56 7.56 0 0 0 .445 3.371 8 8 0 0 0 1.036 1.855 7.5 7.5 0 0 0 1.745 1.608c.709.442 1.486.919 2.341 1.198a7.2 7.2 0 0 0 2.79.352c1.947-.128 3.981-1.146 5.278-2.924 2.297-3.836 4.732-8.224 7.346-12.731 1.264-2.195 1.234-4.973.034-7.036a6.96 6.96 0 0 0-2.377-2.52c-.991-.631-1.988-1.172-3.076-1.365-2.155-.44-4.351.17-5.868 1.398-1.567 1.197-2.264 3.024-3.184 4.462l-4.112 6.99-1.141 1.887c-.264.428-.411.648-.427.639s.101-.247.337-.693l1.056-1.936 3.968-7.072 1.324-2.338a7.9 7.9 0 0 1 1.91-2.278c1.597-1.317 3.927-1.986 6.232-1.531 1.159.198 2.247.782 3.248 1.416a7.46 7.46 0 0 1 2.555 2.69c1.292 2.206 1.331 5.191-.027 7.545-2.627 4.528-5.033 8.844-7.411 12.756-1.396 1.891-3.572 2.956-5.636 3.072a7.6 7.6 0 0 1-2.949-.403c-.922-.318-1.684-.802-2.416-1.273a7.8 7.8 0 0 1-1.804-1.713 8.2 8.2 0 0 1-1.045-1.955c-.453-1.315-.504-2.536-.373-3.495.13-.966.435-1.665.635-2.128.244-.446.381-.672.396-.664M191.471 137.538s20.29 57.62 28.325 69.879c8.036 12.258 44.694 43.847 50.316 42.179s6.61-3.49 2.548-10.048-28.979-29.691-32.677-35.416-29.809-73.602-29.809-73.602z"/><path fill="#EBEBEB" d="m202.992 121.829-13.022 4.875a7.383 7.383 0 0 0-4.326 9.502l.262.7a7.383 7.383 0 0 0 9.502 4.326l13.022-4.875a7.383 7.383 0 0 0 4.326-9.502l-.262-.7a7.383 7.383 0 0 0-9.502-4.326"/><path fill="#E0E0E0" d="M202.992 121.829c-.006-.016.24-.115.72-.282.49-.123 1.228-.31 2.203-.281.968.026 2.165.276 3.388.936.6.346 1.204.787 1.759 1.349a7.8 7.8 0 0 1 1.397 2.059c.345.799.699 1.63.863 2.591a7.6 7.6 0 0 1-.082 2.975c-.45 2.018-1.854 3.992-3.947 5.062-4.246 1.71-8.896 3.382-13.791 5.238-2.544.958-5.483.434-7.449-1.2a7.44 7.44 0 0 1-2.239-2.958c-.463-1.091-.862-2.259-.869-3.435-.075-2.348.964-4.538 2.523-5.9a7.9 7.9 0 0 1 2.558-1.514l2.522-.926 7.623-2.765 2.082-.727c.478-.162.733-.238.739-.222.006.017-.235.126-.701.319l-2.048.819-7.565 2.921c-1.568.674-3.484 1.064-4.92 2.416-1.458 1.297-2.417 3.365-2.333 5.563.014 1.104.385 2.176.847 3.256a7 7 0 0 0 2.1 2.755c1.84 1.52 4.577 2.002 6.948 1.111 4.873-1.847 9.598-3.535 13.757-5.178 1.965-.991 3.301-2.832 3.744-4.732.227-.951.25-1.913.106-2.81-.137-.889-.48-1.734-.801-2.505a7.5 7.5 0 0 0-1.302-1.983 8 8 0 0 0-1.662-1.324 7.6 7.6 0 0 0-3.254-.987c-1.906-.08-2.902.438-2.916.359"/><path fill="#263238" d="M714.755 453.47c0 .144-152.436.26-340.434.26-188.063 0-340.468-.117-340.468-.26s152.406-.26 340.468-.26c187.998 0 340.434.116 340.434.26"/><path fill="#E0E0E0" d="M87.016 339.067c.277-.838 31.435-102.695 31.435-102.695l-.78-12.649 8.149-13.418 10.122 3.343-1.385 15.042-7.194 10.936-31.386 102.336z"/><path fill="#263238" d="M87.016 339.067s.21.056.6.176l1.732.537 6.657 2.095-.116.06 31.231-102.384.011-.035.02-.031 7.191-10.938-.041.118 1.383-15.042.178.271-.837-.276-9.285-3.067.303-.112-8.152 13.416.037-.149.774 12.649.003.046-.013.043-22.61 73.468-6.628 21.411-1.792 5.743-.472 1.488c-.108.337-.174.513-.174.513s.039-.163.134-.492l.433-1.469 1.714-5.712 6.476-21.399 22.437-73.696-.01.089-.785-12.649-.005-.08.042-.069 8.146-13.42.107-.177.196.065 9.285 3.066.837.276.197.065-.019.206-1.387 15.041-.006.065-.036.054-7.197 10.934.031-.065-31.543 102.289-.028.09-.088-.029-6.674-2.212-1.698-.571c-.377-.129-.56-.2-.56-.2"/><path fill="#A78E57" d="M79.495 344.018 65.5 362.942l-19.57 70.987s-2.814 14.479 13.18 18.593c17.96 4.619 22.104-9.138 22.104-9.138l19.028-69.33-.285-24.06 4.697-5.289a1.98 1.98 0 0 0-.859-3.195l-22.47-7.421a1.98 1.98 0 0 0-2.591 2.071z"/><path fill="#263238" d="M100.117 350.831c-.043.137-4.753-1.235-10.518-3.065-5.767-1.83-10.406-3.424-10.362-3.562.043-.137 4.752 1.235 10.52 3.065 5.764 1.83 10.404 3.425 10.36 3.562M100.242 374.054c-.009.035-.507-.055-1.402-.247-.896-.19-2.184-.495-3.77-.894a211 211 0 0 1-12.294-3.523 210 210 0 0 1-12.06-4.254 111 111 0 0 1-3.592-1.457c-.84-.362-1.299-.578-1.286-.611s.497.119 1.36.422l3.647 1.301c3.078 1.1 7.341 2.584 12.091 4.103a381 381 0 0 0 12.23 3.663l3.725 1.053c.878.252 1.36.409 1.351.444"/><path fill="#000" d="m52.973 435.942-.48-.142a3.303 3.303 0 0 1-2.23-4.105l17.57-59.339a3.303 3.303 0 0 1 4.105-2.229l.48.142a3.303 3.303 0 0 1 2.229 4.105l-17.57 59.339a3.303 3.303 0 0 1-4.104 2.229M62.947 439.227l-.48-.142a3.303 3.303 0 0 1-2.229-4.105l17.57-59.339a3.303 3.303 0 0 1 4.104-2.229l.48.142a3.303 3.303 0 0 1 2.23 4.105l-17.57 59.339a3.303 3.303 0 0 1-4.105 2.229M73.537 442.362l-.48-.142a3.303 3.303 0 0 1-2.229-4.105l17.57-59.339a3.304 3.304 0 0 1 4.104-2.23l.48.142a3.303 3.303 0 0 1 2.23 4.105l-17.57 59.339a3.3 3.3 0 0 1-4.105 2.23" opacity=".3"/><path fill="#263238" d="M127.266 239.596c-.047.136-2.041-.43-4.454-1.265s-4.331-1.621-4.284-1.757 2.041.43 4.454 1.265 4.331 1.621 4.284 1.757M135.942 213.647c.03.01-.096.504-.352 1.403l-1.136 3.824-4.025 12.958-.078.25-.249-.087-4.606-1.605-4.745-1.665-.226-.079.064-.229 3.649-12.965 1.119-3.793c.271-.885.434-1.364.464-1.355.03.008-.074.503-.292 1.402l-.973 3.833-3.476 13.013-.161-.308 4.749 1.654 4.603 1.615-.327.163 4.196-12.904 1.281-3.778c.308-.88.491-1.356.521-1.347"/><path fill="#E0E0E0" d="M430.9 111.922c-.797 0-1.598-.13-2.37-.398l-12.244-4.243a7.29 7.29 0 0 1-4.755-5.49l-2.447-12.727a7.28 7.28 0 0 1 2.379-6.864l9.796-8.482a7.29 7.29 0 0 1 7.132-1.372l12.244 4.243a7.28 7.28 0 0 1 4.756 5.493l2.447 12.723a7.28 7.28 0 0 1-2.38 6.864l-9.795 8.481a7.28 7.28 0 0 1-4.763 1.772M419.306 99.86l11.441 3.964 9.153-7.926-2.287-11.89-11.441-3.965-9.153 7.926z"/><path fill="#263238" d="M419.305 99.86c-.014.013-.083-.26-.203-.791l-.502-2.345-1.772-8.717a.2.2 0 0 1 .063-.183l9.119-7.965a.24.24 0 0 1 .241-.046l11.444 3.95c-.151-.175.21.24.173.199l.001.003.001.006.002.012.005.025.009.049.019.098.038.196.075.39.149.777.296 1.542.579 3.025 1.099 5.769a.25.25 0 0 1-.08.232l-9.187 7.886a.2.2 0 0 1-.19.037l-8.375-3.001-2.249-.833c-.51-.195-.769-.302-.755-.315.015-.012.303.07.836.238l2.309.747 8.359 2.797-.19.036 9.119-7.965-.08.232-1.12-5.765-.585-3.023-.297-1.541-.15-.777-.075-.39-.038-.195-.019-.098-.009-.05-.005-.023-.002-.012-.001-.006-.001-.003c-.037-.044.322.37.168.195l-11.435-3.978.241-.046-9.187 7.886.063-.183 1.573 8.673.409 2.392c.091.55.132.847.117.859"/><path fill="#263238" d="M430.899 111.922c-.001-.027.435-.01 1.238-.16a7.36 7.36 0 0 0 3.198-1.473l9.941-8.707a7.15 7.15 0 0 0 2.239-3.556 7.3 7.3 0 0 0 .23-2.243c-.046-.76-.249-1.547-.395-2.355l-2.003-10.285c-.176-.916-.32-1.809-.726-2.634a7.06 7.06 0 0 0-4.031-3.665l-2.819-.975-5.788-2.002-2.96-1.025c-.997-.378-1.959-.638-3.003-.632a7.1 7.1 0 0 0-2.966.656c-.938.411-1.686 1.086-2.474 1.78l-4.633 4.007-4.464 3.866a7.05 7.05 0 0 0-2.28 4.827c-.067.896.124 1.757.296 2.65l.497 2.613.948 4.997c.313 1.604.583 3.188.899 4.647a7.11 7.11 0 0 0 3.91 4.624c.585.262 1.214.454 1.802.669l3.349 1.182 5.359 1.904c1.477.506 2.593.994 3.397 1.131.804.149 1.24.133 1.239.159 0 0-.435.063-1.256-.056-.83-.107-1.963-.568-3.446-1.043l-5.388-1.82-3.362-1.144c-.594-.211-1.208-.389-1.838-.662a7.476 7.476 0 0 1-4.153-4.839c-.34-1.515-.61-3.056-.935-4.671l-.973-4.992-.508-2.611c-.171-.867-.383-1.806-.314-2.763a7.53 7.53 0 0 1 2.424-5.17l4.466-3.884 4.628-4.013c.398-.339.769-.681 1.202-1.021a8 8 0 0 1 1.392-.839 7.6 7.6 0 0 1 3.185-.705c1.097-.015 2.209.293 3.173.662l2.959 1.027 5.785 2.009 2.82.982a7.54 7.54 0 0 1 4.307 3.935c.432.883.586 1.858.754 2.749l1.956 10.294c.139.805.341 1.59.388 2.414a7.7 7.7 0 0 1-.259 2.372 7.5 7.5 0 0 1-2.386 3.729l-10.057 8.588a7.2 7.2 0 0 1-3.305 1.417c-.824.117-1.259.055-1.259.055"/><path fill="#E0E0E0" d="M345.666 91.104a5.28 5.28 0 0 1-4.113-1.971l-3.492-4.355a5.28 5.28 0 0 1-.798-5.204l2.026-5.202a5.28 5.28 0 0 1 4.107-3.292l5.518-.846a5.28 5.28 0 0 1 4.905 1.91l3.491 4.356a5.28 5.28 0 0 1 .799 5.203l-2.027 5.203a5.28 5.28 0 0 1-4.107 3.293l-5.518.846a5.4 5.4 0 0 1-.791.059m4.045-16.931q-.094 0-.19.015l-5.517.846a1.27 1.27 0 0 0-.987.791l-2.025 5.201c-.164.42-.09.899.191 1.25l3.492 4.355c.282.352.733.527 1.178.459l5.518-.846c.445-.068.823-.371.986-.79l2.027-5.202a1.27 1.27 0 0 0-.192-1.249l-3.491-4.355a1.27 1.27 0 0 0-.99-.475"/><path fill="#263238" d="M349.711 74.173c-.002-.012.15-.053.43.02.138.04.307.112.471.25.168.145.3.33.475.527l2.841 3.412.461.566c.167.229.266.513.277.809.021.299-.104.605-.194.834l-.288.759-1.255 3.287-.337.878a1.52 1.52 0 0 1-.745.833c-.377.18-.711.166-1.029.234l-.99.155c-1.35.202-2.671.433-4.166.626a1.53 1.53 0 0 1-1.139-.509l-.668-.831-1.284-1.607-1.237-1.553-.301-.379a1.518 1.518 0 0 1-.257-1.57l1.299-3.271.593-1.481c.102-.228.163-.478.338-.722a1.45 1.45 0 0 1 .644-.499c1.923-.352 3.378-.488 4.434-.637 1.039-.128 1.624-.182 1.627-.131-.002.021-.139.037-.41.101l-1.186.231c-1.009.2-2.576.425-4.326.777a1.1 1.1 0 0 0-.469.381c-.114.158-.179.404-.277.645l-.565 1.492-1.255 3.288a1.03 1.03 0 0 0-.011.748c.073.226.311.45.511.715l1.247 1.545 1.29 1.603.652.808c.185.211.467.335.751.335l4.089-.61.991-.149c.328-.061.674-.068.884-.181.236-.116.417-.316.51-.565l.346-.875 1.3-3.27.302-.754c.108-.262.19-.451.182-.672a1.1 1.1 0 0 0-.19-.597l-.434-.559-2.712-3.516c-.541-.952-1.246-.874-1.22-.921"/><path fill="#263238" d="M345.666 91.104c0-.018.232-.053.667-.103l1.909-.333 3.026-.51c.595-.1 1.216-.172 1.82-.44a5.1 5.1 0 0 0 1.705-1.16 5.2 5.2 0 0 0 1.183-1.934l.916-2.392c.544-1.673 1.663-3.381 1.258-5.294-.165-.946-.601-1.824-1.284-2.596l-1.999-2.484-1.027-1.277c-.341-.441-.684-.815-1.117-1.138a5.04 5.04 0 0 0-3.015-1.006c-.538-.01-1.092.116-1.66.193l-1.671.255-3.249.505a5.05 5.05 0 0 0-3.437 2.684c-.207.427-.378.923-.564 1.379l-1.066 2.707c-.325.888-.751 1.713-.876 2.544-.286 1.706.368 3.295 1.365 4.389l2.512 3.194c.377.467.691.928 1.051 1.27.358.349.732.62 1.092.822 1.473.79 2.482.649 2.461.725q0 .013-.173.022a4 4 0 0 1-.508-.015 5.1 5.1 0 0 1-1.877-.554 5.3 5.3 0 0 1-1.167-.821c-.395-.355-.722-.814-1.107-1.267l-2.572-3.146c-1.037-1.094-1.806-2.845-1.505-4.686.136-.932.564-1.762.876-2.644l1.046-2.715c.188-.467.339-.928.572-1.421.234-.48.542-.93.913-1.33a5.55 5.55 0 0 1 2.855-1.637c1.098-.194 2.168-.342 3.28-.52l1.671-.256c.554-.075 1.124-.208 1.739-.2a5.55 5.55 0 0 1 3.326 1.112c.467.345.878.8 1.208 1.23l1.023 1.28 1.989 2.493c.698.79 1.206 1.803 1.369 2.825a5.5 5.5 0 0 1-.32 2.98l-1.008 2.552-.944 2.38a5.6 5.6 0 0 1-1.295 2.047c-1.099 1.129-2.57 1.536-3.743 1.63-1.169.162-2.185.303-3.039.42-.836.109-1.481.205-1.926.238-.451.02-.683.02-.683.003M443.089 78.049c.103.09-1.011 1.592-2.575 3.296-1.566 1.707-3.056 2.868-3.148 2.76-.096-.11 1.216-1.425 2.766-3.114s2.843-3.041 2.957-2.942M424.336 72.299c.132-.046.821 1.623 1.338 3.782.522 2.159.668 3.958.529 3.977-.146.022-.52-1.723-1.036-3.855-.51-2.133-.971-3.857-.831-3.904M416.882 87.77c-.058.137-1.744-.456-3.844-1.102-2.099-.653-3.825-1.117-3.795-1.262.026-.137 1.822.103 3.949.765 2.128.655 3.745 1.471 3.69 1.599M414.747 105.117c-.11-.092.805-1.37 2.045-2.854s2.334-2.612 2.445-2.52-.805 1.37-2.045 2.854-2.335 2.613-2.445 2.52M431.591 110.595c-.142.022-.457-1.422-.704-3.225s-.331-3.279-.188-3.296.458 1.427.704 3.225.33 3.274.188 3.296M445.816 97.78c-.052.134-1.373-.25-2.95-.855-1.578-.606-2.815-1.207-2.763-1.341s1.372.248 2.95.855c1.578.606 2.815 1.206 2.763 1.34M644.338 174.457c6.778-8.154 13.546-16.394 18.82-25.593s9.029-19.483 9.277-30.083c.037-1.607-.656-12.765-2.2-13.21-1.104-.319-1.862 9.53-2.767 10.238-8.633 6.759-14.245 16.79-17.472 27.269s-4.755 20.452-5.658 31.379"/><path fill="#FFDBC8" d="M556.154 236.481c2.7-6.986 15.985-41.96 15.932-41.981 0 0-22.91-11.925-15.046-36.202 3.8-11.727 13.589-35.24 22.695-56.415 9.787-22.759 35.416-34.176 58.888-26.25l2.332.787c24.657 9.963 29.97 36.469 19.329 60.841l-48.967 113.5-42.936-13.271z"/><path fill="#FFC3A7" d="M572.085 194.501s14.937 6.04 34.62 1.323c0 0-13.621 15.388-37.01 5.065z"/><path fill="#263238" d="M579.728 125.23c-.681 1.801.284 3.863 2.153 4.608 1.865.743 3.93-.11 4.61-1.911s-.283-3.864-2.148-4.608c-1.868-.746-3.935.11-4.615 1.911M581.515 113.663c.276.595 3.545-.458 7.257.806 3.726 1.21 5.807 4.042 6.363 3.723.266-.134.105-1.095-.791-2.36-.878-1.255-2.588-2.765-4.907-3.537-2.319-.768-4.552-.574-5.966-.08-1.437.492-2.098 1.175-1.956 1.448M612.322 138.335c-.68 1.801.284 3.863 2.153 4.607 1.864.743 3.929-.109 4.61-1.911.68-1.801-.284-3.864-2.149-4.608-1.868-.745-3.934.111-4.614 1.912M617.397 127.455c.276.595 3.55-.455 7.259.808 3.725 1.21 5.805 4.042 6.363 3.723.265-.135.108-1.093-.792-2.359-.877-1.256-2.588-2.766-4.905-3.538-2.318-.768-4.553-.574-5.966-.08-1.436.491-2.1 1.174-1.959 1.446M594.431 151.502c.089-.205-2.086-1.384-5.666-3.126-.916-.418-1.751-.91-1.692-1.611.008-.76.75-1.65 1.583-2.599l5.245-6.276c7.369-8.969 13.045-16.474 12.682-16.768-.364-.294-6.632 6.738-14.001 15.708-1.794 2.22-3.507 4.335-5.142 6.36-.722.957-1.753 1.971-1.749 3.557.016.795.539 1.545 1.091 1.914.545.391 1.076.582 1.536.768 3.697 1.473 6.027 2.279 6.113 2.073M604.497 157.764c-.593-.239-1.962 3.791-6.38 5.487-4.415 1.708-8.561-.196-8.783.357-.141.234.693 1.106 2.491 1.769 1.759.662 4.552.968 7.255-.07 2.698-1.045 4.394-3.08 5.091-4.689.722-1.633.61-2.784.326-2.854M622.693 112.448c.025 1.134 3.896 1.908 8.078 3.905 4.221 1.913 7.305 4.376 8.19 3.666.404-.346.112-1.504-.979-2.962-1.079-1.452-3.013-3.139-5.531-4.314-2.52-1.17-5.056-1.563-6.862-1.454-1.818.105-2.893.627-2.896 1.159M587.22 101.831c.369 1.065 3.224 1.053 6.315 2.051 3.125.89 5.492 2.486 6.389 1.806.407-.339.283-1.323-.586-2.506-.853-1.175-2.511-2.459-4.647-3.109-2.137-.647-4.228-.501-5.591.002-1.379.5-2.029 1.248-1.88 1.756"/><path fill="#FFDBC8" d="M652.265 154.497c.473-.039 18.271.696 12.162 17.046-6.11 16.35-21.264 6.844-21.117 6.364.146-.479 8.955-23.41 8.955-23.41"/><path fill="#FFC3A7" d="M650.619 173.58c.092-.026.211.306.61.706.389.39 1.141.84 2.113.839 1.964.012 4.443-2.187 5.624-5.104.597-1.472.815-3.006.726-4.376-.052-1.382-.513-2.507-1.326-2.987-.791-.523-1.601-.233-1.973.153-.39.375-.408.74-.505.736-.061.024-.248-.405.136-1.031.189-.3.525-.613 1.026-.784.511-.173 1.149-.119 1.73.173 1.228.558 1.93 2.142 2.028 3.646.166 1.536-.044 3.273-.715 4.926-1.336 3.256-4.174 5.708-6.793 5.508-1.262-.13-2.092-.835-2.444-1.406-.355-.593-.305-.991-.237-.999"/><path fill="#263238" d="M600.638 78.935c-2.079-2.467 9.113-7.971 16.722-8.424 11.501-.685 27.508 2.318 35.556 8.345 9.69 7.256 16.648 16.132 18.309 28.124s-.711 24.31-5.364 35.486c-1.419 3.41-3.156 6.866-6.116 9.074-3.658 2.729-8.896 3.323-10.612 8.366-.627 1.843-1.849 3.478-3.601 4.325-4.198 2.029-6.703-2.351-7.233-5.983-1.132-7.757 1.393-15.53 3.884-22.963 1.771-5.283 3.597-10.673 6.978-15.102 1.839-2.41 4.105-4.485 5.808-6.994s2.82-5.668 1.967-8.578c-.139-.473-.422-1.112-.81-1.847-3.062-5.815-9.058-9.505-15.628-9.679-10.422-.275-27.953-1.44-30.851-6.124-4.169-6.74-4.456-10.202-4.456-10.202z"/><path fill="#A78E57" d="M655.032 68.882c1.048.532 25.62 15.713 25.457 37.85-.162 22.137-4.213 27.558-4.213 27.558s1.222 1.471 1.959 3.349c.66 1.683-3.11 7.379-6.344 5.478-22.061-20.468-52.462-32.223-87.143-42.961l-26.162-9.364c-7.651-1.676-9.562-4.517-5.824-5.296 2.866-.597 26.626-1.798 26.626-1.798l5.131-1.58 16.026-11.312s-.62-2.554 2.633-3.385 31.162-9.04 51.854 1.46"/><path fill="#263238" d="M584.521 82.118s.348.139 1.022.36l2.955.944c2.582.767 6.258 2.066 10.773 3.73 8.984 3.433 21.174 8.874 33.75 16.477 12.628 7.52 23.358 15.431 31.017 21.26 3.839 2.908 6.896 5.326 9.021 6.983l2.448 1.906c.563.431.873.64.873.64s-.271-.258-.815-.713l-2.393-1.974c-2.09-1.7-5.117-4.158-8.933-7.102-7.612-5.9-18.327-13.865-30.979-21.399-12.601-7.618-24.845-13.026-33.874-16.385-9.062-3.31-14.865-4.727-14.865-4.727"/><path fill="#000" d="M675.339 88.949s-27.116-14.516-42.097-12.756q.875-.12 1.75-.238l-13.985 1.165c-2.362.197-5.075.267-6.7-1.458 0 0 8.492-3.598 21.9-3.53s33.083 4.88 39.132 16.817" opacity=".3"/><path fill="#263238" d="M675.703 89.243s-.61-.992-1.993-2.57a38 38 0 0 0-6.578-5.945c-3.037-2.2-6.998-4.378-11.697-5.992-4.672-1.612-10.156-2.767-15.901-2.208-2.864.242-5.607.806-8.242 1.357-2.626.598-5.177 1.04-7.58 1.709-2.385.669-4.617 1.408-6.787 1.616-2.177.305-4.16-.218-5.932-.79-7.09-2.328-10.921-5.277-10.448-5.615.005-.018-.02.332.372.75.384.4 1.018.932 1.916 1.476 1.786 1.1 4.502 2.489 8.058 3.704 1.754.594 3.848 1.158 6.074.86 2.224-.197 4.491-.934 6.862-1.586 2.367-.646 4.939-1.085 7.56-1.676 2.631-.544 5.359-1.102 8.187-1.34 5.667-.551 11.074.573 15.722 2.15 4.666 1.578 8.608 3.706 11.645 5.855a40 40 0 0 1 6.633 5.796 34 34 0 0 1 1.573 1.817c.352.424.556.632.556.632"/><path fill="#000" d="M680.139 115.878c-5.135-1.805-8.581-4.482-13.307-7.356-5.036-3.062-10.107-5.859-14.991-9.158-3.706-2.504-8.199-5.15-9.848-9.016-1.12 2.002-1.146 4.156-.096 6.195s5.507 5.57 7.404 6.86c10.81 7.348 18.322 12.369 30.404 17.482.33-1.314.434-5.007.434-5.007" opacity=".3"/><path fill="#A78E57" d="M680.404 104.277c2.775 2.535 4.448 4.176 3.588 6.986-.716 2.339-2.157 5.006-4.573 4.627-.737-.115-1.4-.499-2.044-.876l-33.074-19.371c-1.118-.655-2.32-1.407-2.746-2.631-.656-1.883.987-3.94 2.91-4.463s3.958.048 5.855.66c10.781 3.487 20.614 8.849 30.084 15.068"/><path fill="#263238" d="M641.925 93.72c.068-.02-.486-.604-.423-1.877.052-1.197.891-3.161 3-3.983 2.122-.72 4.934-.237 7.69.875a206 206 0 0 1 9.037 3.846c6.351 2.873 11.837 6.019 15.571 8.642a77 77 0 0 1 4.339 3.221l1.144.924c.265.207.41.311.42.299s-.113-.139-.359-.37l-1.09-.993a58 58 0 0 0-4.265-3.352c-3.703-2.704-9.196-5.914-15.568-8.796a177 177 0 0 0-9.076-3.822c-2.814-1.103-5.705-1.59-7.964-.782-2.252.932-3.06 3.026-3.064 4.284-.011.658.16 1.152.309 1.458.175.296.29.434.299.427"/><path fill="#fff" d="m595.518 74.356 22.517 7.213-4.053 5.651-24.132-8.863z"/><path fill="#263238" d="M622.517 105.809c.058-.115-9.421-4.962-21.168-10.824-11.751-5.864-21.321-10.522-21.378-10.407-.058.115 9.419 4.961 21.17 10.825 11.747 5.862 21.319 10.522 21.376 10.406"/><path fill="#A78E57" d="m628.195 227.128.295-14.781-50.58 18.789s-9.348-30.364-9.348-31.798l-11.209 7.046-18.63-8.01-18.63-9.208-37.683 65.955-39.529 116.563 93.154 62.12 69.06-74.011 41.984-63.974 23.084-40.523z"/><path fill="#263238" d="M573.414 230.922c-.03 0-.056-.517-.078-1.478l-.052-4.145.228.145c-3.87 1.877-9.69 5.259-15.231 10.43l-.405.378-.031-.553-.116-2.067c-.406-7.25-.744-13.814-.963-18.567l-.232-5.63-.037-1.532c-.003-.351.005-.535.022-.536.018-.001.046.182.082.53l.134 1.527.397 5.62a1993 1993 0 0 1 1.23 20.625l-.436-.176c5.598-5.207 11.51-8.554 15.447-10.338l.234-.106-.006.251-.096 4.144c-.029.962-.061 1.478-.091 1.478M623.53 227.839c.007.016-.191.124-.576.313l-1.694.804-6.268 2.869-20.76 9.286-9.864 4.356-.421.186.079-.452a78 78 0 0 0 1.152-14.233l.234.141-4.669 2.269-1.25.582c-.286.128-.437.187-.444.174s.131-.1.404-.254l1.212-.658 4.602-2.402.226-.118.008.259a72.7 72.7 0 0 1-.992 14.323l-.341-.266 9.852-4.384 20.822-9.147 6.335-2.718 1.733-.715c.399-.157.612-.232.62-.215"/><path fill="#455A64" d="M535.103 446.758H154.196c-8.045 0-14.567-6.522-14.567-14.567v-263.74c0-8.045 6.522-14.567 14.567-14.567h380.906c8.045 0 14.567 6.522 14.567 14.567v263.741c.001 8.044-6.521 14.566-14.566 14.566"/><path fill="#455A64" d="M550.055 453.47H141.402c-9.829 0-17.798-7.968-17.798-17.798v-7.829h444.248v7.829c.001 9.83-7.967 17.798-17.797 17.798"/><path fill="#263238" d="M537.518 165.519H150.637v247.329h386.881zM304.229 425.097l5.513 9.471h77.571l5.119-9.471z"/><path fill="#EBEBEB" d="M527.071 412.057H161.878a3.273 3.273 0 0 1-3.273-3.273V177.165a3.273 3.273 0 0 1 3.273-3.273h365.195a3.27 3.27 0 0 1 3.272 3.273v231.619a3.275 3.275 0 0 1-3.274 3.273"/><path fill="#FAFAFA" d="M529.947 412.405h-371.74l.398-220.714h371.342z"/><path fill="#263238" d="M189.839 183.09c0 1.771-1.371 3.207-3.061 3.207-1.691 0-3.061-1.436-3.061-3.207s1.37-3.206 3.061-3.206 3.061 1.435 3.061 3.206M171.285 183.09c0 1.771-1.37 3.207-3.062 3.207-1.69 0-3.061-1.436-3.061-3.207s1.371-3.206 3.061-3.206c1.692 0 3.062 1.435 3.062 3.206M180.821 183.09c0 1.771-1.37 3.207-3.061 3.207s-3.061-1.436-3.061-3.207 1.371-3.206 3.061-3.206c1.691 0 3.061 1.435 3.061 3.206M546.147 425.097c0 .159-91.009.287-203.249.287-112.279 0-203.269-.128-203.269-.287s90.99-.287 203.269-.287c112.24 0 203.249.129 203.249.287"/><path fill="#E0E0E0" d="M304.543 234.031a79.2 79.2 0 0 1 19.34-8.405l3.984-19.144 32.344-.567 4.654 18.99a79.2 79.2 0 0 1 19.625 7.721l16.347-10.715 23.272 22.471-10.132 16.71a79.2 79.2 0 0 1 8.404 19.345l19.142 3.983.568 32.344-18.991 4.656a79.3 79.3 0 0 1-7.72 19.623l10.713 16.348-22.467 23.273-16.712-10.133a79.2 79.2 0 0 1-19.343 8.404l-3.985 19.144-32.343.568-4.655-18.992a79.3 79.3 0 0 1-19.624-7.72l-16.347 10.715-23.273-22.47 10.133-16.71a79.2 79.2 0 0 1-8.406-19.343l-19.143-3.984-.567-32.343 18.991-4.657a79.3 79.3 0 0 1 7.72-19.623l-10.712-16.35 22.468-23.273zm17.241 43.087c-13.312 13.789-12.927 35.758.862 49.069s35.757 12.925 49.068-.863 12.927-35.757-.862-49.069c-13.788-13.311-35.756-12.925-49.068.863"/><path fill="#E0E0E0" d="M433.753 246.373a27.3 27.3 0 0 1 2.252-6.911l-4.028-5.404 7.247-8.474 5.963 3.14a27.3 27.3 0 0 1 6.478-3.299l.972-6.667 11.117-.868 1.995 6.434a27.3 27.3 0 0 1 6.912 2.254l5.403-4.028 8.475 7.247-3.14 5.964a27.3 27.3 0 0 1 3.298 6.477l6.667.973.869 11.116-6.434 1.995a27.3 27.3 0 0 1-2.253 6.912l4.028 5.404-7.247 8.474-5.964-3.14a27.3 27.3 0 0 1-6.478 3.298l-.972 6.667-11.117.868-1.995-6.434a27.3 27.3 0 0 1-6.912-2.253l-5.404 4.028-8.474-7.247 3.14-5.964a27.4 27.4 0 0 1-3.298-6.477l-6.667-.972-.868-11.117zm15.065 3.371c-.674 7.97 6.273 14.216 13.994 12.881 5.263-.91 9.389-5.358 9.84-10.68.676-7.971-6.273-14.221-13.996-12.883-5.263.911-9.387 5.359-9.838 10.682M190.218 358.025c.085-2.906.563-5.75 1.391-8.466l-5.667-5.584 6.939-11.184 7.52 2.596a32.3 32.3 0 0 1 6.968-5.008l-.059-7.952 12.815-3.001 3.479 7.149c2.907.085 5.752.563 8.468 1.393l5.583-5.666 11.184 6.939-2.596 7.52a32.3 32.3 0 0 1 5.007 6.967l7.952-.058 3.003 12.814-7.15 3.479a32.2 32.2 0 0 1-1.392 8.467l5.667 5.584-6.939 11.184-7.52-2.597a32.3 32.3 0 0 1-6.967 5.007l.059 7.952-12.815 3.002-3.479-7.15a32.2 32.2 0 0 1-8.468-1.392l-5.584 5.667-11.184-6.939 2.596-7.52a32.3 32.3 0 0 1-5.007-6.967l-7.952.058-3.002-12.815zm18.535 3.607c1.779 7.593 9.375 12.306 16.968 10.527 7.592-1.779 12.305-9.375 10.526-16.968-1.779-7.592-9.375-12.306-16.968-10.527-7.592 1.78-12.305 9.376-10.526 16.968"/><path fill="#EBEBEB" d="M213.229 251.177a20.6 20.6 0 0 1 1.698-5.21l-3.037-4.074 5.464-6.389 4.496 2.367a20.6 20.6 0 0 1 4.884-2.487l.733-5.026 8.381-.654 1.504 4.85c1.827.335 3.577.913 5.211 1.699l4.074-3.037 6.389 5.463-2.367 4.496a20.6 20.6 0 0 1 2.486 4.883l5.026.733.655 8.381-4.851 1.504a20.6 20.6 0 0 1-1.699 5.211l3.037 4.074-5.463 6.389-4.496-2.367a20.6 20.6 0 0 1-4.883 2.487l-.733 5.026-8.381.655-1.504-4.851a20.6 20.6 0 0 1-5.211-1.698l-4.074 3.037-6.389-5.463 2.367-4.496a20.6 20.6 0 0 1-2.486-4.883l-5.026-.733-.655-8.381zm11.352 4.072a9.018 9.018 0 1 0 17.98-1.406 9.018 9.018 0 0 0-17.98 1.406M434.173 341.427a17.7 17.7 0 0 1 1.458-4.476l-2.609-3.499 4.693-5.488 3.862 2.033a17.7 17.7 0 0 1 4.195-2.136l.63-4.317 7.199-.562 1.292 4.166c1.569.288 3.072.784 4.476 1.459l3.499-2.609 5.488 4.693-2.033 3.862a17.7 17.7 0 0 1 2.136 4.194l4.317.63.563 7.199-4.167 1.292a17.7 17.7 0 0 1-1.459 4.476l2.609 3.5-4.693 5.488-3.862-2.034a17.7 17.7 0 0 1-4.195 2.136l-.63 4.317-7.199.562-1.292-4.167a17.7 17.7 0 0 1-4.476-1.459l-3.499 2.609-5.488-4.693 2.033-3.862a17.7 17.7 0 0 1-2.136-4.195l-4.317-.63-.562-7.199zm9.751 3.497a7.747 7.747 0 1 0 15.447-1.207 7.747 7.747 0 0 0-15.447 1.207"/><path fill="#A78E57" d="M345.729 352.276h-49.753c-12.849 0-20.879-13.909-14.455-25.036l24.877-43.088 24.877-43.087c6.424-11.127 22.485-11.127 28.91 0l24.877 43.087 24.877 43.088c6.424 11.127-1.606 25.036-14.455 25.036z"/><path fill="#263238" d="M399.286 332.218s.139.257.389.773c.19.534.505 1.353.504 2.484.027 1.116-.25 2.546-1.164 3.929a6.8 6.8 0 0 1-1.874 1.867 6.14 6.14 0 0 1-2.861.935c-8.478.091-20.721.076-35.862.113l-53.18.056-7.597.005c-2.698.059-5.263-1.858-6.13-4.435a7.24 7.24 0 0 1-.252-4.028c.087-.331.195-.658.303-.983.146-.309.285-.63.439-.929l.959-1.755 3.883-7.102 16.18-29.578 16.194-29.582 7.704-14.064c.642-1.147 1.228-2.295 1.906-3.424.685-1.141 1.646-2.126 2.799-2.779 2.294-1.338 5.188-1.431 7.524-.337 1.166.543 2.209 1.355 2.973 2.375.752 1.046 1.272 2.144 1.871 3.208l3.458 6.332 6.611 12.108 11.859 21.737 17.14 31.493 4.637 8.575 1.194 2.236c.268.505.393.77.393.77s-.156-.248-.438-.745l-1.24-2.211-4.722-8.528-17.285-31.413-11.915-21.707-6.634-12.096-3.468-6.326c-.596-1.058-1.142-2.186-1.837-3.145-.721-.961-1.702-1.72-2.798-2.229-2.196-1.026-4.926-.934-7.075.324-1.082.613-1.981 1.538-2.625 2.613-.655 1.091-1.256 2.268-1.891 3.407l-7.693 14.071-16.185 29.587-16.189 29.573-3.888 7.099c-.614 1.193-1.396 2.293-1.656 3.539a6.73 6.73 0 0 0 .232 3.745c.812 2.405 3.17 4.165 5.662 4.116l7.597.005 53.18.056 35.849.053a6 6 0 0 0 2.779-.883 6.6 6.6 0 0 0 1.842-1.803 6.8 6.8 0 0 0 1.187-3.842c-.041-2.244-.885-3.242-.789-3.26"/><path fill="#fff" d="M337.676 323.009c0-4.412 3.515-7.702 8.525-7.702s8.45 3.29 8.45 7.702c0 4.338-3.44 7.853-8.45 7.853s-8.525-3.515-8.525-7.853m.075-45.169h16.901l-2.842 33.279h-11.292zM348.113 236.116c-.038.105-1.164-.559-3.167-.652-1.972-.116-4.808.533-7.211 2.411-2.4 1.893-3.861 4.34-4.768 6.121-.907 1.801-1.333 2.987-1.414 2.957-.032-.011.037-.32.209-.863.171-.544.454-1.32.874-2.253.833-1.844 2.279-4.399 4.779-6.372 2.515-1.967 5.507-2.586 7.556-2.368 1.032.098 1.843.342 2.367.579.526.233.789.414.775.44M327.31 254.399c-.124-.073.366-1.131 1.095-2.362s1.419-2.171 1.543-2.097-.366 1.131-1.095 2.362c-.728 1.231-1.419 2.17-1.543 2.097"/><path fill="#fff" d="m370.688 259.257-77.483 47.746-10.064 17.432 93.018-55.703zM382.889 280.415l-102.705 60.584c.294 1.375 1.216 3.149 2.231 4.317l102.29-61.755z" opacity=".3"/><path fill="#E0E0E0" d="M636.717 393.395c-8.227-9.067-20.698-11.98-31.644-8.473l-9.573-10.503-1.333-1.491-75.728-83.087c4.551-10.555 2.862-23.249-5.365-32.316-6.997-7.711-17.064-10.975-26.652-9.623l-3.699 1.47 12.881 8.651-.682 14.045-10.414 9.449-14.045-.683-9.182-10.12-3.795 1.483c-1.087 8.477 4.596 19.151 10.788 25.976 8.214 9.054 20.66 11.971 31.595 8.489l76.996 84.479 2.368 2.626 7.297 8.007c-4.526 10.545-2.829 23.215 5.385 32.269 6.168 6.798 14.348 11.337 22.857 11.106l3.795-1.483-9.182-10.121.683-14.045 10.414-9.449 14.045.683 5.387 11.604 3.795-1.483c2.277-9.412.004-19.748-6.992-27.46"/><path fill="#000" d="M636.717 393.395c-8.227-9.067-20.698-11.98-31.644-8.473l-9.573-10.503-1.333-1.491-75.728-83.087c4.551-10.555 2.862-23.249-5.365-32.316-6.997-7.711-17.064-10.975-26.652-9.623l-3.699 1.47 12.881 8.651-.682 14.045-10.414 9.449-14.045-.683-9.182-10.12-3.795 1.483c-1.087 8.477 4.596 19.151 10.788 25.976 8.214 9.054 20.66 11.971 31.595 8.489l76.996 84.479 2.368 2.626 7.297 8.007c-4.526 10.545-2.829 23.215 5.385 32.269 6.168 6.798 14.348 11.337 22.857 11.106l3.795-1.483-9.182-10.121.683-14.045 10.414-9.449 14.045.683 5.387 11.604 3.795-1.483c2.277-9.412.004-19.748-6.992-27.46" opacity=".3"/><path fill="#E0E0E0" d="M632.922 394.879c-8.227-9.067-20.697-11.98-31.644-8.473l-9.573-10.503-1.333-1.491-75.728-83.087c4.551-10.555 2.862-23.249-5.365-32.316-6.997-7.711-17.064-10.975-26.652-9.623l9.182 10.12-.682 14.045L480.713 283l-14.045-.683-9.182-10.121c-2.276 9.411-.003 19.748 6.993 27.459 8.215 9.054 20.66 11.971 31.595 8.489l76.996 84.479 2.368 2.626 7.297 8.007c-4.526 10.545-2.829 23.215 5.385 32.269 6.997 7.711 17.064 10.975 26.652 9.623l-9.182-10.12.682-14.045 10.414-9.449 14.045.683 9.182 10.12c2.279-9.411.006-19.747-6.991-27.458"/><path fill="#263238" d="M632.921 394.879s.436.483 1.27 1.448c.77 1.013 1.956 2.512 3.13 4.722 1.179 2.199 2.341 5.108 3.039 8.714.633 3.602.778 7.932-.341 12.601l-.047.198-.137-.151-9.198-10.106.089.042-14.046-.665.106-.038-10.404 9.46.053-.112-.669 14.045-.045-.126 9.191 10.113.237.26-.349.05a30.5 30.5 0 0 1-14.638-1.507 30.3 30.3 0 0 1-12.786-8.865c-3.515-4.073-6.016-9.233-6.908-14.821a30.7 30.7 0 0 1 2.062-16.972l.04.24-86.686-95.089.27.072a30.76 30.76 0 0 1-16.903.474c-5.659-1.431-10.966-4.611-14.972-9.046a30.5 30.5 0 0 1-6.985-13.052 30.65 30.65 0 0 1-.058-14.632l.115-.476.329.362 9.181 10.121-.178-.084 14.045.684-.185.066 10.415-9.447-.083.176.685-14.044.065.181-9.18-10.123-.317-.349.466-.063c5.652-.766 11.443.014 16.521 2.269 5.087 2.231 9.462 5.838 12.571 10.236 3.129 4.383 5.049 9.528 5.514 14.728a31.05 31.05 0 0 1-2.349 15.041l-.04-.241 86.551 95.155-.12-.032c5.418-1.722 10.569-1.665 14.798-.917 4.237.841 7.613 2.325 10.101 3.849 2.513 1.508 4.136 3.044 5.238 4.03a115 115 0 0 1 1.542 1.621s-.542-.525-1.584-1.577c-1.113-.97-2.745-2.486-5.257-3.971-2.488-1.502-5.855-2.96-10.071-3.778-4.208-.725-9.324-.763-14.696.963l-.07.023-.05-.055-86.714-95.006-.097-.107.057-.134a30.6 30.6 0 0 0 2.301-14.818c-.463-5.12-2.357-10.183-5.44-14.495-3.065-4.329-7.374-7.875-12.379-10.067-4.998-2.216-10.697-2.98-16.257-2.224l.149-.412 9.185 10.118.07.077-.005.104-.68 14.045-.005.105-.078.071-10.412 9.45-.079.071-.106-.005-14.045-.681-.107-.005-.072-.079-9.183-10.119.444-.113a30.14 30.14 0 0 0 .059 14.383 29.95 29.95 0 0 0 6.866 12.829c3.939 4.361 9.153 7.485 14.716 8.892a30.25 30.25 0 0 0 16.616-.464l.158-.051.112.123 86.636 95.135.098.107-.057.133a30.25 30.25 0 0 0-2.048 16.725c.874 5.51 3.332 10.6 6.796 14.621a29.9 29.9 0 0 0 12.605 8.763 30.15 30.15 0 0 0 14.452 1.509l-.112.31-9.174-10.128-.049-.054.004-.072.696-14.044.003-.067.05-.045 10.424-9.437.045-.041.061.003 14.044.701.054.003.036.04 9.167 10.135-.184.047c1.127-4.632 1-8.936.388-12.521-.677-3.589-1.817-6.491-2.975-8.69-1.154-2.211-2.322-3.717-3.076-4.739-.822-.979-1.23-1.487-1.23-1.487"/><path fill="#263238" d="M511.189 296.171c.031.017-.087.281-.329.746-.235.468-.631 1.116-1.165 1.886-1.063 1.542-2.786 3.52-5.06 5.274-2.281 1.748-4.636 2.904-6.399 3.535-.882.318-1.609.533-2.122.641-.511.114-.796.161-.805.126-.023-.085 1.089-.393 2.794-1.106a28.4 28.4 0 0 0 6.218-3.604 28.4 28.4 0 0 0 5.081-5.082c1.127-1.465 1.711-2.46 1.787-2.416"/><path fill="#FFDBC8" d="m595.759 332.258-28.808-13.402-25.713-3.206 9.444 7.953s-33.238 11.584-33.821 14.196 2.626 9.628 8.48 8.333c0 0-3.293 3.963-1.922 8.404s4.399 5.243 9.987 4.212c0 0-3.802 5.691-.821 8.592s7.617 2.165 7.617 2.165.056 6.932 3.718 7.538c3.662.607 13.863-.112 17.67-1.287l19.349-5.975 12.611-2.767z"/><path fill="#FFC3A7" d="M542.817 341.056c.111.381-3.713 1.827-8.541 3.229s-8.832 2.231-8.942 1.85c-.111-.381 3.713-1.826 8.542-3.229 4.827-1.403 8.831-2.231 8.941-1.85M547.71 354.735c.115.38-2.924 1.63-6.784 2.793-3.863 1.162-7.086 1.797-7.2 1.417s2.923-1.63 6.786-2.792c3.861-1.164 7.084-1.798 7.198-1.418M552.1 366.1c.067.427-2.692 1.011-5.934 1.824-3.224.847-5.764 1.957-5.964 1.581-.187-.313 2.147-2.056 5.597-2.969 3.433-.857 6.249-.79 6.301-.436M555.734 322.5c.107.389-3.667 1.758-8.33 3.367-4.667 1.602-8.484 2.844-8.638 2.472-.151-.359 3.456-2.211 8.171-3.83 4.712-1.625 8.695-2.385 8.797-2.009"/><path fill="#FFDBC8" d="m590.343 329.739 62.287 22.558-3.64 42.753-68.574-27.647z"/><path fill="#A78E57" d="M670.261 254.927s8.123 8.394 12.849 23.484c4.694 14.984 27.031 79.055 26.462 99.413-.588 21.048-14.758 36.068-45.9 27.75-18.583-4.963-40.717-12.988-40.717-12.988l15.734-51.733 12.309 3.103-19.877-37.313z"/><path fill="#263238" d="M656.011 279.382c.117.084-8.498 12.356-19.237 27.407-10.744 15.057-19.544 27.191-19.661 27.108-.117-.084 8.494-12.353 19.237-27.41 10.74-15.052 19.544-27.189 19.661-27.105M679.84 351.034c-.023.037-.537-.264-1.511-.71-.971-.451-2.422-1.003-4.27-1.51-1.846-.511-4.087-.988-6.574-1.529l-8.084-1.787a1299 1299 0 0 1-14.662-3.357l-4.43-1.076c-1.043-.265-1.616-.429-1.608-.464s.597.061 1.654.266l4.467.914c3.767.794 8.963 1.927 14.697 3.209l8.074 1.827c2.479.566 4.716 1.081 6.568 1.643 1.852.557 3.303 1.17 4.257 1.682.48.25.839.469 1.075.628.238.158.357.249.347.264"/><path fill="#000" d="M695.763 353.285c-.247-2.471-2.097-4.557-4.286-5.73s-4.697-1.582-7.157-1.919c-11.194-1.536-22.508-1.962-33.799-2.385l1.044.453a210.7 210.7 0 0 1 40.75 11.873c.756.306 1.615.616 2.359.284.91-.407 1.188-1.584 1.089-2.576M439.136 154.916c-10.497-1.785-23.054 1.261-33.551-.524-1.569-.267-3.285-.509-4.664.285-1.657.954-2.23 3.069-2.311 4.979-.225 5.285 2.22 10.5 6.035 14.163s8.892 5.852 14.107 6.737c4.191.712 8.694.575 12.432-1.449 6.524-3.534 9.681-16.975 7.952-24.191" opacity=".3"/><path fill="#FFDBC8" d="M398.391 174.126s-6.371-7.462-7.294-10.908c-.612-2.283-.305-8.668-.028-12.717.19-2.775 1.913-5.31 4.547-6.203.918-.311 1.788-.351 2.376.192 0 0 .403-.698 2.903-3.257s3.687-4.294 9.189-2.702c0 0 4.047-4.273 6.375-3.954 2.328.32 4.635.999 4.635.999s8.87-.374 10.688 2.443c.796 1.232 2.435 2.093 4.028 2.671 2.801 1.017 5.103 3.057 6.327 5.774 1.666 3.697 1.771 7.73 1.771 7.73l-9.026.358s.638 20.706-1.629 22.376-3.134 1.077-3.134 1.077-1.729 4.859-8.477 1.263c0 0-5.603 1.689-7.993-.62s-11.178-24.501-11.178-24.501l.245 11.029s4.63 7.137 2.363 8.808c-2.265 1.67-6.688.142-6.688.142"/><path fill="#FFC3A7" d="M409.631 146.058c.034-.011.216.453.514 1.3l1.218 3.605a904 904 0 0 1 3.832 11.951c1.481 4.674 2.674 8.953 4.06 11.835a25 25 0 0 0 1.836 3.3c.49.748.802 1.135.766 1.165-.014.012-.105-.074-.266-.249a10 10 0 0 1-.665-.799 20.3 20.3 0 0 1-2.002-3.257c-1.492-2.886-2.747-7.175-4.226-11.839a901 901 0 0 1-3.686-11.997l-1.06-3.654c-.24-.866-.356-1.35-.321-1.361M420.702 143.503c.035-.009.197.469.459 1.341l1.065 3.705a941 941 0 0 1 3.322 12.272 928 928 0 0 1 3.175 12.313l.905 3.747c.202.888.298 1.383.263 1.393s-.196-.468-.459-1.339l-1.064-3.704a926 926 0 0 1-3.323-12.277 928 928 0 0 1-3.175-12.314l-.904-3.747c-.203-.886-.299-1.381-.264-1.39"/></svg>