<svg width="36" height="22" viewBox="0 0 36 22" fill="none" xmlns="http://www.w3.org/2000/svg">
<path d="M14.0625 3.125C15 3.125 15.625 2.5 15.625 1.5625C15.625 0.625 15 0 14.0625 0C6.25 0 0 6.25 0 14.0625C0 18.4375 3.4375 21.875 7.8125 21.875C12.1875 21.875 15.625 18.4375 15.625 14.0625C15.625 9.6875 12.1875 6.25 7.8125 6.25C7.34375 6.25 6.71875 6.25 6.25 6.40625C8.28125 4.375 10.9375 3.125 14.0625 3.125Z" fill="#282727"/>
<path d="M27.2246 6.25C26.7559 6.25 26.1309 6.25 25.6621 6.40625C27.6934 4.375 30.3496 3.125 33.4746 3.125C34.4121 3.125 35.0371 2.5 35.0371 1.5625C35.0371 0.625 34.4121 0 33.4746 0C25.6621 0 19.4121 6.25 19.4121 14.0625C19.4121 18.4375 22.8496 21.875 27.2246 21.875C31.5996 21.875 35.0371 18.4375 35.0371 14.0625C35.0371 9.6875 31.5996 6.25 27.2246 6.25Z" fill="#282727"/>
</svg>
